<svg width="151" height="91" viewBox="0 0 151 91" fill="none" xmlns="http://www.w3.org/2000/svg">
<g clip-path="url(#clip0_0_376)">
<path d="M50.4908 6.52819C46.791 6.68905 44.6998 8.69983 44.6998 11.8367C44.6998 14.0083 45.9867 15.9386 47.9975 16.8234C48.9626 17.1451 50.4908 17.9494 51.9386 18.5124C56.7645 20.0406 58.6948 22.2927 58.6948 25.7512C58.6948 31.2206 54.0298 35.1617 48.2388 35.1617C45.5845 35.2421 43.0107 34.3574 41 32.6683C41 32.6683 41.4825 30.3358 41.6434 29.3706C41.6434 29.3706 44.6194 34.0357 48.8822 33.7944C52.4212 33.9552 55.3971 31.1401 55.4776 27.6012C55.4776 27.5207 55.4776 27.4403 55.4776 27.3599C55.4776 24.3839 53.6277 22.534 49.3648 21.0862C45.102 19.6385 43.252 17.9494 42.4477 16.5821C41.8043 15.4561 41.4825 14.2496 41.4825 12.9627C41.4825 8.29768 45.2628 5 50.7321 5C55.1558 5 57.3275 7.17164 57.3275 7.17164C56.8449 8.21725 56.4427 9.34328 56.2015 10.4693C56.2819 10.4693 54.5928 6.52819 50.4908 6.52819Z" fill="#003471"/>
<path d="M50.4911 42.5282C46.7913 42.6891 44.7001 44.6998 44.7001 47.8367C44.7001 50.0083 45.987 51.9386 47.9978 52.8234C48.963 53.1451 50.4911 53.9494 51.9389 54.5124C56.7648 56.0406 58.6951 58.2927 58.6951 61.7512C58.6951 67.2206 54.0301 71.1617 48.2391 71.1617C45.5848 71.2421 43.011 70.3574 41.0003 68.6683C41.0003 68.6683 41.4829 66.3358 41.6437 65.3706C41.6437 65.3706 44.6197 70.0357 48.8825 69.7944C52.4215 69.9552 55.3974 67.1401 55.4779 63.6012C55.4779 63.5207 55.4779 63.4403 55.4779 63.3599C55.4779 60.3839 53.628 58.534 49.3651 57.0862C45.1023 55.6385 43.2523 53.9494 42.448 52.5821C41.8046 51.4561 41.4829 50.2496 41.4829 48.9627C41.4829 44.2977 45.2631 41 50.7324 41C55.1562 41 57.3278 43.1716 57.3278 43.1716C56.8452 44.2172 56.4431 45.3433 56.2018 46.4693C56.2822 46.4693 54.5931 42.5282 50.4911 42.5282Z" fill="#003471"/>
<path d="M20.6434 5.08043C24.5845 5.24129 26.1127 5.24129 28.0431 5.24129C29.1691 5.24129 33.995 5.24129 34.7993 5.08043H35.2819C35.2819 5.40216 35.121 5.88474 35.121 6.20647V7.3325C33.995 7.3325 32.9494 7.3325 31.8233 7.17164C27.9626 7.01078 26.7562 7.01078 25.6301 7.01078H23.9411V7.49337L23.7802 12.1584V17.6277C23.7802 17.7081 23.8607 17.7886 23.9411 17.7886H27.8822C28.3648 17.7886 29.1691 17.7886 31.019 17.6277H34.1558V19.7993C32.4668 19.7993 29.33 19.6385 26.5149 19.4776C25.6301 19.4776 24.7454 19.4776 23.8607 19.6385H23.7802V22.4536L23.9411 25.7513V28.7272C23.9411 29.3707 24.1019 30.8988 24.1019 32.0249L24.2628 32.1857H25.6301C29.0887 32.1857 34.0754 31.7032 35.684 31.5423C35.6036 31.9445 35.5232 32.3466 35.5232 32.6683V33.9552H31.9038L29.0887 33.7944L23.7802 33.9552H20C20 33.9552 20.3217 30.6576 20.3217 28.325L20.4825 24.7056V19.3972C20.4825 19.3972 20.3217 6.68906 20.1608 5H20.6434V5.08043Z" fill="#003471"/>
<path d="M20.6437 42.0804C24.5848 42.2413 26.113 42.2413 28.0434 42.2413C29.1694 42.2413 33.9953 42.2413 34.7996 42.0804H35.2822C35.2822 42.4022 35.1213 42.8847 35.1213 43.2065V44.3325C33.9953 44.3325 32.9497 44.3325 31.8236 44.1716C27.9629 44.0108 26.7565 44.0108 25.6304 44.0108H23.9414V44.4934L23.7805 49.1584V54.6277C23.7805 54.7081 23.861 54.7886 23.9414 54.7886H27.8825C28.3651 54.7886 29.1694 54.7886 31.0193 54.6277H34.1561V56.7993C32.4671 56.7993 29.3303 56.6385 26.5152 56.4776C25.6304 56.4776 24.7457 56.4776 23.861 56.6385H23.7805V59.4536L23.9414 62.7513V65.7272C23.9414 66.3707 24.1023 67.8988 24.1023 69.0249L24.2631 69.1857H25.6304C29.089 69.1857 34.0757 68.7032 35.6843 68.5423C35.6039 68.9445 35.5235 69.3466 35.5235 69.6683V70.9552H31.9041L29.089 70.7944L23.7805 70.9552H20.0003C20.0003 70.9552 20.322 67.6576 20.322 65.325L20.4829 61.7056V56.3972C20.4829 56.3972 20.322 43.6891 20.1611 42H20.6437V42.0804Z" fill="#003471"/>
<path d="M10.7287 88.0267L10.407 89.1527C9.28094 89.8766 7.91361 90.1983 6.62671 90.1179C2.84644 90.1179 0.513939 87.7854 0.513939 84.0051C0.513939 82.316 1.15739 80.627 2.36386 79.3401C3.73119 78.2945 5.42024 77.7315 7.18972 77.8923C8.47662 77.8119 9.68309 78.0532 10.8091 78.5358C10.6483 78.9379 10.4874 79.4205 10.4874 79.8227H10.3265C9.4418 78.9379 8.23533 78.4553 6.94843 78.5358C5.5811 78.4553 4.21377 79.0988 3.32903 80.1444C2.52472 81.2704 2.12256 82.5573 2.20299 83.9247C2.12256 85.3724 2.60515 86.7397 3.48989 87.8658C4.2942 88.831 5.50067 89.394 6.78757 89.3135C8.23533 89.3135 9.52223 88.831 10.5678 87.8658L10.7287 88.0267Z" fill="#003471"/>
<path d="M31.7161 84.0051C31.7161 87.7854 29.2228 90.1179 25.2817 90.1179C21.1797 90.1179 18.6863 87.7854 18.6863 84.0051C18.6863 80.2248 21.1797 77.8923 25.2817 77.8923C29.2228 77.8923 31.7161 80.2248 31.7161 84.0051ZM21.421 80.2248C20.6971 81.3509 20.3754 82.7182 20.4558 84.0051C20.3754 85.292 20.6971 86.5789 21.421 87.7049C22.2253 88.9918 23.673 89.7157 25.2012 89.7157C26.649 89.7157 28.0163 88.9918 28.8206 87.7049C29.5445 86.6593 29.8662 85.3724 29.7858 84.0855C29.8662 82.7182 29.4641 81.4313 28.8206 80.3053C28.0163 79.0988 26.649 78.4554 25.2012 78.4554C23.7535 78.3749 22.3057 79.0988 21.421 80.2248Z" fill="#003471"/>
<path d="M42.4128 77.8926C42.5737 78.2144 42.5737 78.2144 42.8954 78.8578C43.2171 79.3404 43.378 79.823 43.6997 80.3056L44.0214 81.1099C45.1475 83.1207 44.8258 82.7989 45.6301 84.0858C46.1127 85.1314 46.6757 86.0966 47.3191 87.0618C47.7213 86.3379 48.2039 85.614 48.6864 84.8901C49.0082 84.0858 49.4103 83.2815 49.8125 82.5576L50.1342 81.7533L50.6168 81.1099L51.0994 80.3056C51.4211 79.5817 51.8233 78.8578 52.2254 78.1339L52.3863 77.8122H52.708C52.8689 78.1339 52.8689 77.9731 52.8689 78.7774C52.9493 79.5817 53.0297 80.4664 53.1906 81.2707V81.9142L53.3515 82.5576V83.8445C53.5123 84.4076 53.5927 85.051 53.6732 85.6945V86.3379L53.834 87.7052C53.9949 88.6704 53.9949 89.153 54.1558 89.8769C53.9145 89.7964 53.5928 89.716 53.3515 89.716C53.1102 89.716 52.7884 89.7964 52.5471 89.8769C52.5471 89.0726 52.5471 88.1878 52.3863 87.3835C52.2254 84.7293 52.2254 84.7293 51.7428 80.949C51.3407 81.4316 51.0189 81.9946 50.7777 82.6381C50.6168 82.9598 50.7777 82.6381 50.1342 83.925C49.8125 84.6489 49.4103 85.2923 49.0082 85.9358C47.8821 88.2683 47.5604 88.7508 47.1583 89.5552H46.9974C46.8365 89.2334 46.8365 89.2334 46.3539 88.1074C46.1931 87.7857 46.6757 88.59 44.9866 85.4532C44.6649 84.7293 44.3432 84.0858 43.8606 83.4424L43.5389 82.7989L43.2171 82.1555L42.8954 81.512L42.7345 81.3512V81.2707C42.4128 82.7989 42.1715 84.3271 42.0911 85.9358C41.9302 88.2683 41.9302 88.9117 41.7694 90.0377C41.4476 89.7964 40.9651 89.7964 40.6433 90.0377C40.8042 89.3943 40.8042 88.9117 40.9651 88.027C41.4476 85.051 41.2868 85.8553 41.2868 85.3727C41.4476 84.9706 41.4476 84.6488 41.4476 84.2467L41.6085 83.6032C41.9302 81.5925 41.7694 82.6381 42.0911 80.6273C42.252 78.9382 42.252 78.9382 42.4128 77.9731V77.8926Z" fill="#003471"/>
<path d="M65.4255 84.8905V88.9925C65.5863 89.3142 65.5863 89.6359 65.5863 89.9577C65.3451 89.8772 65.0233 89.7968 64.782 89.7968C64.4603 89.7968 64.1386 89.8772 63.8169 89.9577C63.9777 89.2338 63.9777 88.5099 63.9777 87.786C63.9777 86.66 64.1386 84.6492 64.1386 83.8449C64.1386 82.2363 63.9777 81.0298 63.9777 79.9038C63.9777 79.2603 63.8973 78.6973 63.8169 78.0538C64.2995 78.2147 64.782 78.2147 65.2646 78.2147C65.7472 78.2147 66.1494 78.1343 66.632 78.0538H67.5971C70.2514 78.0538 71.5383 79.019 71.5383 81.0298C71.4578 82.1558 70.9752 83.2014 70.0905 83.8449C69.0449 84.3275 67.8384 84.5688 66.632 84.4883H65.5059V84.8905H65.4255ZM65.4255 83.8449H66.2298C68.7232 83.8449 69.8492 82.8797 69.8492 81.0298C69.8492 79.582 68.884 78.6973 66.8732 78.6973C66.3907 78.6973 65.9885 78.6973 65.5059 78.8581C65.4255 79.2603 65.3451 79.6625 65.3451 79.9842L65.4255 83.8449Z" fill="#003471"/>
<path d="M83.4618 77.8923C83.6227 78.3749 83.4618 77.8923 83.9444 79.2597C84.1857 79.9031 84.427 80.4661 84.7487 81.1096C86.4378 84.8898 85.8747 83.7638 86.4378 85.0507L86.7595 86.0159C87.7247 87.8658 87.4029 87.3028 87.5638 87.8658C88.0464 88.9918 88.2072 88.9918 88.529 90.0374C88.2877 89.8766 87.9659 89.8766 87.7246 89.8766C87.4029 89.8766 87.0812 89.8766 86.7595 90.0374C86.5986 89.2331 86.3573 88.4288 85.9552 87.7049C85.7139 86.9006 85.3921 86.0963 84.99 85.3724H80.7271C79.9228 87.3832 79.9228 87.2223 78.8772 90.0374C78.7164 89.8766 78.5555 89.8766 78.3946 89.8766C78.1533 89.8766 77.9121 89.957 77.7512 90.0374C78.0729 89.2331 78.3946 88.5897 79.0381 87.0615C79.5207 86.0963 79.8424 85.0507 80.4054 84.0855C81.0489 82.6378 81.5315 81.5922 81.6923 81.1096C82.0945 80.5466 82.3358 79.9031 82.4966 79.2597C82.7379 78.9379 82.8988 78.6162 82.9792 78.2945L83.1401 78.1336V77.9728L83.4618 77.8923ZM80.9684 84.5681H84.7487C84.5878 84.3268 84.427 84.0051 84.2661 83.7638C83.4618 81.5922 83.7835 82.316 83.4618 81.753C83.3009 81.2704 83.0596 80.7074 82.8184 80.3053L80.9684 84.5681Z" fill="#003471"/>
<path d="M97.03 77.8923L97.1909 78.0532C97.7539 78.5358 98.2365 79.0184 98.6387 79.501C99.1212 80.1444 99.6843 80.7879 100.328 81.3509L100.81 81.9943L101.454 82.4769L101.936 83.1204C102.58 83.6834 103.223 84.4073 103.786 85.1311L105.636 86.9811V86.8202C105.797 86.4985 105.636 86.9811 105.797 85.3724V83.2008C105.797 81.8335 105.797 80.4661 105.636 79.0988V78.0532C105.797 78.1336 106.038 78.2141 106.28 78.2141C106.44 78.2141 106.601 78.2141 106.762 78.0532V79.501C106.601 80.5466 106.601 81.5922 106.601 82.6378C106.44 83.9247 106.44 85.292 106.44 86.5789V89.0723C106.44 89.394 106.521 89.7157 106.601 90.0374H106.28C105.556 89.0723 104.832 88.1875 103.947 87.3832C103.143 86.5789 102.258 85.3724 101.454 84.729C101.132 84.2464 101.615 84.8898 99.7647 82.8791L98.6387 81.753C97.5126 80.3857 97.8344 80.7879 97.6735 80.7879L97.5126 80.627V85.1311C97.5126 86.3376 97.5126 87.5441 97.6735 88.7505V89.8766C97.5126 89.7157 97.3518 89.7157 97.03 89.7157C96.8692 89.7157 96.7083 89.7157 96.5475 89.8766C96.5475 89.1527 96.5475 88.4288 96.7083 87.7049V83.7638L96.8692 83.1204V77.8923H97.03Z" fill="#003471"/>
<path d="M117.718 78.2147C117.959 78.2147 118.281 78.2147 118.522 78.0538C118.522 78.6973 118.522 79.4212 118.361 80.0646V87.8664C118.361 88.6707 118.522 89.1533 118.522 90.0381C118.281 89.9576 117.959 89.8772 117.718 89.8772C117.476 89.8772 117.155 89.8772 116.913 90.0381V87.8664C116.913 87.223 116.994 86.4991 117.074 85.8557V83.2014C117.074 82.1558 117.074 81.1102 116.913 80.0646V78.0538C117.155 78.2147 117.396 78.2147 117.718 78.2147Z" fill="#003471"/>
<path d="M131.222 89.7966H129.372C128.97 89.7161 128.568 89.7966 128.246 89.9574C128.246 89.1531 128.407 88.2684 128.407 86.6598V80.0644C128.487 79.421 128.407 78.6971 128.246 78.0536C128.729 78.0536 128.889 78.2145 129.533 78.2145H133.313C133.957 78.2145 133.957 78.0536 134.278 78.0536V79.0188H132.991C132.67 79.0188 132.187 78.8579 131.463 78.8579H129.855V81.673C129.694 82.6382 129.694 82.3165 129.855 82.3165C129.694 82.6382 129.694 82.6382 129.694 82.7991C129.694 82.9599 129.694 83.1208 129.855 83.1208C130.015 83.2817 130.257 83.2816 130.498 83.2816C130.9 83.2816 131.302 83.2012 131.624 83.1208H133.957V84.086C132.991 83.9251 131.946 83.8447 130.981 83.9251H129.694C129.774 84.0055 129.855 84.1664 129.855 84.2468L129.694 85.6142C129.694 86.1772 129.774 86.6598 129.855 87.2228V88.9118C130.015 88.9923 130.257 89.0727 130.498 89.0727C130.981 89.0727 131.463 88.9923 132.026 88.9118C132.831 88.9923 133.715 88.9118 134.52 88.751V89.877H134.359V89.7161L131.222 89.7966Z" fill="#003471"/>
<path d="M147.777 80.0638C147.455 79.1791 146.571 78.6161 145.605 78.6161C144.56 78.5356 143.595 79.2595 143.434 80.3856C143.434 80.466 143.434 80.5464 143.434 80.6269C143.353 81.2703 143.595 81.9138 144.077 82.3159C144.721 82.7181 145.364 83.0398 146.088 83.2811C146.812 83.5224 147.536 83.9245 148.099 84.4071C148.581 84.8897 148.903 85.5332 148.903 86.257C148.903 88.5895 147.053 90.1982 144.56 90.1982C143.514 90.1982 142.549 89.8764 141.745 89.233C141.906 88.7504 141.986 88.2678 142.066 87.7852H142.227C142.71 88.7504 143.756 89.3939 144.882 89.4743C146.168 89.5547 147.294 88.5895 147.375 87.3026C147.375 87.2222 147.375 87.1418 147.375 87.1418C147.375 86.5788 147.214 85.9353 146.892 85.4527C146.249 85.0506 145.605 84.7288 144.882 84.4876C142.71 83.6832 142.066 82.8789 142.066 81.1899C142.066 80.3051 142.388 79.5008 143.032 78.8574C143.836 78.2944 144.721 78.0531 145.686 78.0531C146.651 77.9726 147.616 78.2944 148.34 78.8574C148.018 79.2595 147.857 79.6617 147.857 80.2247L147.777 80.0638Z" fill="#003471"/>
</g>
<defs>
<clipPath id="clip0_0_376">
<rect width="150.487" height="90.1634" fill="white" transform="translate(0.474022 0.0372925)"/>
</clipPath>
</defs>
</svg>
