<svg width="17" height="17" viewBox="0 0 17 17" fill="none" xmlns="http://www.w3.org/2000/svg">
<g clip-path="url(#clip0_0_343)">
<path fill-rule="evenodd" clip-rule="evenodd" d="M8.83672 7.50384V10.3451H13.6322C13.439 11.5633 12.1827 13.9204 8.83672 13.9204C5.94974 13.9204 3.59426 11.5775 3.59426 8.68771C3.59426 5.79907 5.94974 3.45501 8.83672 3.45501C10.4795 3.45501 11.5787 4.14166 12.2069 4.73359L14.502 2.56711C13.0283 1.2175 11.1197 0.400635 8.83672 0.400635C4.16199 0.400635 0.381134 4.10614 0.381134 8.68771C0.381134 13.2693 4.16199 16.9748 8.83672 16.9748C13.7168 16.9748 16.9553 13.6126 16.9553 8.87713C16.9553 8.33255 16.8937 7.9182 16.8212 7.50384H8.83672Z" fill="#676662"/>
</g>
<defs>
<clipPath id="clip0_0_343">
<rect width="16.5742" height="16.5742" fill="white" transform="translate(0.381134 0.400635)"/>
</clipPath>
</defs>
</svg>
