<svg width="18" height="17" viewBox="0 0 18 17" fill="none" xmlns="http://www.w3.org/2000/svg">
<g clip-path="url(#clip0_0_345)">
<path d="M17.3629 3.5477C16.7531 3.81841 16.0978 4.00072 15.4099 4.0829C16.1123 3.66233 16.6516 2.99592 16.9051 2.20174C16.2483 2.59123 15.5204 2.87437 14.7456 3.02699C14.1261 2.3661 13.2415 1.95312 12.2636 1.95312C10.0682 1.95312 8.455 4.00141 8.95084 6.12774C6.12564 5.98617 3.62018 4.63261 1.94273 2.57535C1.05187 4.10362 1.48073 6.10288 2.9945 7.11528C2.43789 7.09733 1.91304 6.94471 1.45518 6.68988C1.41788 8.26512 2.547 9.73883 4.18232 10.0669C3.70374 10.1967 3.17958 10.2271 2.64644 10.1249C3.07875 11.4757 4.33425 12.4584 5.82316 12.486C4.39364 13.6068 2.59258 14.1075 0.788757 13.8948C2.29355 14.8596 4.08149 15.4224 6.00133 15.4224C12.3147 15.4224 15.8816 10.0903 15.6661 5.30801C16.3305 4.82805 16.9071 4.22931 17.3629 3.5477V3.5477Z" fill="#676662"/>
</g>
<defs>
<clipPath id="clip0_0_345">
<rect width="16.5742" height="16.5742" fill="white" transform="translate(0.788757 0.400635)"/>
</clipPath>
</defs>
</svg>
