<svg width="18" height="17" viewBox="0 0 18 17" fill="none" xmlns="http://www.w3.org/2000/svg">
<g clip-path="url(#clip0_0_339)">
<path d="M15.7589 12.5599C15.2161 14.1344 13.5911 16.9223 11.9171 16.9527C10.8066 16.9741 10.4496 16.2946 9.1803 16.2946C7.91168 16.2946 7.51459 16.932 6.4649 16.9734C4.6887 17.0418 1.94706 12.9493 1.94706 9.38037C1.94706 6.10214 4.23153 4.47719 6.22734 4.44749C7.29775 4.42815 8.30877 5.16916 8.96138 5.16916C9.61675 5.16916 10.8446 4.2783 12.1353 4.40882C12.6754 4.43161 14.1926 4.62635 15.1663 6.05035C12.5828 7.73677 12.9854 11.2636 15.7589 12.5599ZM12.1526 0.400635C10.201 0.479362 8.60849 2.52696 8.83086 4.22029C10.6347 4.36048 12.3653 2.33843 12.1526 0.400635Z" fill="#676662"/>
</g>
<defs>
<clipPath id="clip0_0_339">
<rect width="16.5742" height="16.5742" fill="white" transform="translate(0.56588 0.400635)"/>
</clipPath>
</defs>
</svg>
