<svg width="56" height="10" viewBox="0 0 56 10" fill="none" xmlns="http://www.w3.org/2000/svg">
<path opacity="0.35" d="M37.7692 0.778795H51.581C52.5726 0.778795 53.3765 1.58268 53.3765 2.57433V7.54657C53.3765 8.53822 52.5726 9.3421 51.581 9.3421H37.7692C36.7775 9.3421 35.9736 8.53822 35.9736 7.54657V2.57433C35.9736 1.58268 36.7775 0.778795 37.7692 0.778795Z" stroke="black" stroke-width="0.828708"/>
<path opacity="0.4" d="M54.6106 3.40295V6.71778C55.2775 6.43704 55.7112 5.78394 55.7112 5.06037C55.7112 4.3368 55.2775 3.6837 54.6106 3.40295" fill="black"/>
<path d="M37.2211 2.93331C37.2211 2.42986 37.6293 2.02173 38.1327 2.02173H51.2263C51.7297 2.02173 52.1379 2.42986 52.1379 2.93331V7.18734C52.1379 7.69079 51.7297 8.09892 51.2263 8.09892H38.1327C37.6293 8.09892 37.2211 7.69079 37.2211 7.18734V2.93331Z" fill="black"/>
<path fill-rule="evenodd" clip-rule="evenodd" d="M25.032 2.2493C26.8684 2.24938 28.6345 2.95497 29.9653 4.22024C30.0655 4.31792 30.2257 4.31669 30.3244 4.21748L31.2824 3.25065C31.3324 3.20033 31.3603 3.13217 31.3599 3.06125C31.3594 2.99033 31.3308 2.9225 31.2802 2.87276C27.7871 -0.47484 22.2764 -0.47484 18.7833 2.87276C18.7327 2.92246 18.704 2.99027 18.7035 3.06119C18.7031 3.13211 18.7309 3.2003 18.7808 3.25065L19.7391 4.21748C19.8377 4.31684 19.998 4.31808 20.0982 4.22024C21.4292 2.95489 23.1955 2.24929 25.032 2.2493ZM25.032 5.3948C26.041 5.39473 27.0139 5.76975 27.7618 6.44698C27.863 6.54309 28.0223 6.54101 28.1209 6.44228L29.0778 5.47546C29.1282 5.42474 29.1561 5.35595 29.1554 5.28446C29.1547 5.21297 29.1253 5.14476 29.0739 5.09508C26.7965 2.97659 23.2695 2.97659 20.9921 5.09508C20.9406 5.14476 20.9113 5.213 20.9106 5.28452C20.9099 5.35603 20.938 5.42482 20.9885 5.47546L21.9451 6.44228C22.0437 6.54101 22.2031 6.54309 22.3042 6.44698C23.0516 5.7702 24.0238 5.39521 25.032 5.3948ZM26.9488 7.51116C26.9503 7.58285 26.9221 7.65197 26.8709 7.70219L25.2157 9.37259C25.1672 9.42168 25.1011 9.44931 25.032 9.44931C24.963 9.44931 24.8969 9.42168 24.8483 9.37259L23.1929 7.70219C23.1417 7.65193 23.1136 7.58279 23.1151 7.5111C23.1166 7.43942 23.1476 7.37153 23.2009 7.32347C24.2579 6.42939 25.8061 6.42939 26.8632 7.32347C26.9164 7.37157 26.9474 7.43947 26.9488 7.51116Z" fill="black"/>
<path fill-rule="evenodd" clip-rule="evenodd" d="M13.7217 0.640594H12.893C12.4354 0.640594 12.0643 1.01162 12.0643 1.4693V8.65143C12.0643 9.10912 12.4354 9.48014 12.893 9.48014H13.7217C14.1794 9.48014 14.5505 9.10912 14.5505 8.65143V1.4693C14.5505 1.01162 14.1794 0.640594 13.7217 0.640594ZM9.02574 2.57425H9.85445C10.3121 2.57425 10.6832 2.94527 10.6832 3.40295V8.65143C10.6832 9.10912 10.3121 9.48014 9.85445 9.48014H9.02574C8.56806 9.48014 8.19703 9.10912 8.19703 8.65143V3.40295C8.19703 2.94527 8.56806 2.57425 9.02574 2.57425ZM5.98715 4.5079H5.15844C4.70076 4.5079 4.32973 4.87892 4.32973 5.3366V8.65143C4.32973 9.10912 4.70076 9.48014 5.15844 9.48014H5.98715C6.44483 9.48014 6.81585 9.10912 6.81585 8.65143V5.3366C6.81585 4.87892 6.44483 4.5079 5.98715 4.5079ZM2.11985 6.16531H1.29114C0.833458 6.16531 0.462433 6.53634 0.462433 6.99402V8.65143C0.462433 9.10912 0.833458 9.48014 1.29114 9.48014H2.11985C2.57753 9.48014 2.94855 9.10912 2.94855 8.65143V6.99402C2.94855 6.53634 2.57753 6.16531 2.11985 6.16531Z" fill="black"/>
</svg>
