<svg width="21" height="21" viewBox="0 0 21 21" fill="none" xmlns="http://www.w3.org/2000/svg">
<g clip-path="url(#clip0_0_481)">
<path d="M8.22057 18.4085C8.67825 18.4085 9.04929 18.0374 9.04929 17.5798C9.04929 17.1221 8.67825 16.751 8.22057 16.751C7.76288 16.751 7.39185 17.1221 7.39185 17.5798C7.39185 18.0374 7.76288 18.4085 8.22057 18.4085Z" stroke="black" stroke-width="1.65744" stroke-linecap="round" stroke-linejoin="round"/>
<path d="M17.3414 18.4085C17.7991 18.4085 18.1701 18.0375 18.1701 17.5798C18.1701 17.1221 17.7991 16.7511 17.3414 16.7511C16.8837 16.7511 16.5127 17.1221 16.5127 17.5798C16.5127 18.0375 16.8837 18.4085 17.3414 18.4085Z" stroke="black" stroke-width="1.65744" stroke-linecap="round" stroke-linejoin="round"/>
<path d="M1.5907 1.00519H4.90558L7.12655 12.1018C7.20233 12.4833 7.4099 12.826 7.71291 13.0699C8.01592 13.3139 8.39507 13.4434 8.78399 13.436H16.8392C17.2281 13.4434 17.6072 13.3139 17.9102 13.0699C18.2132 12.826 18.4208 12.4833 18.4966 12.1018L19.8225 5.14879H5.7343" stroke="black" stroke-width="1.65744" stroke-linecap="round" stroke-linejoin="round"/>
</g>
<defs>
<clipPath id="clip0_0_481">
<rect width="19.8893" height="19.8893" fill="white" transform="translate(0.769043 0.176605)"/>
</clipPath>
</defs>
</svg>
